<?xml version="1.0" encoding="UTF-8"?>
<svg width="125px" height="75px" viewBox="0 0 125 75" version="1.1" xmlns="http://www.w3.org/2000/svg" xmlns:xlink="http://www.w3.org/1999/xlink">
    <!-- Generator: Sketch 49.3 (51167) - http://www.bohemiancoding.com/sketch -->
    <title>Amex</title>
    <desc>Created with Sketch.</desc>
    <defs>
        <linearGradient x1="95.5933626%" y1="100%" x2="0%" y2="0%" id="linearGradient-1">
            <stop stop-color="#004CCD" offset="0%"></stop>
            <stop stop-color="#38BCF4" offset="100%"></stop>
        </linearGradient>
        <rect id="path-2" x="0" y="0" width="121" height="71" rx="1"></rect>
    </defs>
    <g id="Payment-methods" stroke="none" stroke-width="1" fill="none" fill-rule="evenodd">
        <g id="Artboard-2" transform="translate(-343.000000, -194.000000)">
            <g id="Amex" transform="translate(345.000000, 196.000000)">
                <g id="Rectangle-Copy-2">
                    <use fill="url(#linearGradient-1)" fill-rule="evenodd" xlink:href="#path-2"></use>
                    <rect stroke="#959595" stroke-width="2" x="-1" y="-1" width="123" height="73" rx="1"></rect>
                </g>
                <path d="M18.0318563,37.3919043 L24.6944091,37.3919043 L21.4165756,30.1865559 L18.0318563,37.3919043 Z M18.3703282,26 L24.5697089,26 L33.8687799,44.3115234 L27.9187996,44.3115234 L26.2264399,40.54735 L16.5532684,40.54735 L14.7362085,44.3115234 L9,44.3115234 L18.3703282,26 Z M54.6046393,26 L62.4963797,26 L62.4963797,44.3115234 L57.3836721,44.3115234 L57.3836721,31.9257779 C57.3836721,31.5696497 57.3896101,31.0706636 57.4014864,30.4288047 C57.4133626,29.7869457 57.4193007,29.2921006 57.4193007,28.9442544 L52.4491076,44.3115234 L47.1226282,44.3115234 L42.1880637,28.9442544 C42.1880637,29.2921006 42.1940018,29.7869457 42.205878,30.4288047 C42.2177543,31.0706636 42.2236923,31.5696497 42.2236923,31.9257779 L42.2236923,44.3115234 L37.1109847,44.3115234 L37.1109847,26 L45.0917966,26 L49.8660323,40.3982739 L54.6046393,26 Z M87.0088733,29.2424068 L73.1137098,29.2424068 L73.1137098,33.1308103 L85.8687573,33.1308103 L85.8687573,36.3111021 L73.1137098,36.3111021 L73.1137098,41.0194246 L87.6501886,41.0194246 L87.6501886,44.3115234 L67.7516018,44.3115234 L67.7516018,26 L87.0088733,26 L87.0088733,29.2424068 Z M96.1119869,44.3115234 L89.7344631,44.3115234 L98.1784471,34.9818395 L90.1441923,26 L96.6998592,26 L101.385023,31.950624 L106.194888,26 L112.536783,26 L104.502528,34.8327633 L113.035584,44.3115234 L106.373031,44.3115234 L101.385023,38.0751701 L96.1119869,44.3115234 Z" id="AMEX" fill="#FFFFFF"></path>
            </g>
        </g>
    </g>
</svg>